<svg width="64" height="64" viewBox="0 0 64 64" fill="none" xmlns="http://www.w3.org/2000/svg">
<path fill-rule="evenodd" clip-rule="evenodd" d="M63 32C63 49.1208 49.1208 63 32 63C14.8792 63 1 49.1208 1 32C1 14.8792 14.8792 1 32 1C49.1208 1 63 14.8792 63 32ZM64 32C64 49.6731 49.6731 64 32 64C14.3269 64 0 49.6731 0 32C0 14.3269 14.3269 0 32 0C49.6731 0 64 14.3269 64 32ZM23 19.5C21.8954 19.5 21 20.3954 21 21.5V38.5V42C21 43.1046 21.8954 44 23 44H42.5V42H23V39.5H42.5H43.5V38.5V20.5V19.5H42.5H23ZM41.5 37.5H23V21.5H41.5V37.5ZM27.5 28H37V26H27.5V28Z" fill="#2A8634"/>
</svg>
