<svg width="64" height="64" viewBox="0 0 64 64" fill="none" xmlns="http://www.w3.org/2000/svg">
<path fill-rule="evenodd" clip-rule="evenodd" d="M32 63C49.1208 63 63 49.1208 63 32C63 14.8792 49.1208 1 32 1C14.8792 1 1 14.8792 1 32C1 49.1208 14.8792 63 32 63ZM32 64C49.6731 64 64 49.6731 64 32C64 14.3269 49.6731 0 32 0C14.3269 0 0 14.3269 0 32C0 49.6731 14.3269 64 32 64ZM44 24L17 24V22L44 22V24ZM17 33H29V31L17 31V33ZM27 41H17V39H27V41ZM36.4423 29.6456C36.5057 29.5962 36.5851 29.57 36.6666 29.5714H39.3333C39.4097 29.5729 39.4829 29.601 39.5394 29.6507C39.5958 29.7004 39.6315 29.7682 39.6399 29.8414L39.8933 31.5386C40.3066 31.6929 40.6666 31.9114 41.0266 32.1429L42.6666 31.5C42.8399 31.5 43.0133 31.5 43.0933 31.6671L44.4266 33.8914C44.4638 33.9585 44.4762 34.0359 44.4617 34.1107C44.4471 34.1855 44.4065 34.2533 44.3466 34.3029L42.9333 35.3571C42.9733 35.5757 42.9866 35.7814 42.9866 36C42.9866 36.2071 42.9627 36.4026 42.9375 36.6084L42.9333 36.6429L44.3599 37.6971C44.4199 37.7467 44.4604 37.8145 44.475 37.8893C44.4895 37.9641 44.4772 38.0415 44.4399 38.1086L43.1066 40.3329C43.0133 40.5 42.8399 40.5 42.6666 40.5L41.0266 39.8571C40.6666 40.0886 40.3066 40.2943 39.9066 40.4614L39.6533 42.1586C39.6266 42.3129 39.4799 42.4286 39.3333 42.4286H36.6666C36.4799 42.4286 36.3466 42.3129 36.3199 42.1586L36.0666 40.4614C35.6533 40.3071 35.2799 40.0886 34.9333 39.8571L33.2799 40.5C33.1199 40.5 32.9466 40.5 32.8666 40.3329L31.5333 38.1086C31.496 38.0415 31.4837 37.9641 31.4982 37.8893C31.5128 37.8145 31.5534 37.7467 31.6133 37.6971L33.0266 36.6429C32.9734 36.2158 32.9734 35.7842 33.0266 35.3571L31.6133 34.3029C31.4799 34.2 31.4533 34.0329 31.5333 33.8914L32.8666 31.6671C32.9599 31.5 33.1333 31.5 33.2799 31.5L34.9333 32.1429C35.2799 31.9114 35.6666 31.7057 36.0666 31.5386L36.3199 29.8414C36.3356 29.7643 36.3789 29.695 36.4423 29.6456ZM39.9999 36C39.9999 34.9329 39.1066 34.0714 37.9999 34.0714C36.8933 34.0714 35.9999 34.9329 35.9999 36C35.9999 37.0671 36.8799 37.9286 37.9999 37.9286C39.1066 37.9286 39.9999 37.0671 39.9999 36Z" fill="#F3C243"/>
</svg>
