<svg width="32" height="32" viewBox="0 0 32 32" fill="none" xmlns="http://www.w3.org/2000/svg">
<path d="M10.6667 6.22238C10.6667 5.73147 11.0647 5.3335 11.5556 5.3335H20.4445C20.9353 5.3335 21.3333 5.73147 21.3333 6.22238C21.3333 6.7133 20.9353 7.11127 20.4445 7.11127H11.5556C11.0647 7.11127 10.6667 6.7133 10.6667 6.22238Z" fill="white"/>
<path fill-rule="evenodd" clip-rule="evenodd" d="M8.85732 8.88905H23.1427C24.2674 8.88904 25.526 8.78679 26.5897 9.22736C27.6787 9.67845 28.544 10.5437 28.995 11.6327C29.4357 12.6963 29.3333 13.9551 29.3333 15.0797V26.6953C29.3333 29.0126 28.1236 30.2225 25.8062 30.2224H6.1938C3.8764 30.2225 2.66667 29.0126 2.66667 26.6953V15.0797C2.66667 13.9551 2.5643 12.6963 3.005 11.6327C3.45606 10.5437 4.3213 9.67845 5.41027 9.22736C6.47406 8.78679 7.73264 8.88904 8.85732 8.88905ZM6.09061 10.8698C5.43718 11.1405 4.91808 11.6596 4.64747 12.313C4.4016 12.9064 4.45072 13.6361 4.4463 14.2658C8.09701 15.393 11.9768 16.0002 16 16.0002C20.0232 16.0002 23.903 15.393 27.5537 14.2658C27.5493 13.6361 27.5984 12.9064 27.3525 12.313C27.0819 11.6596 26.5628 11.1405 25.9094 10.8698C25.0772 10.5252 23.9836 10.6668 23.1111 10.6668H8.8889C8.01641 10.6668 6.92284 10.5252 6.09061 10.8698ZM27.5556 16.122C23.8903 17.1999 20.0119 17.7779 16 17.7779C11.9882 17.7779 8.10982 17.1999 4.44445 16.122V26.6668C4.44445 28.0654 4.82362 28.4446 6.22223 28.4446H25.7778C27.1764 28.4446 27.5556 28.0654 27.5556 26.6668V16.122Z" fill="white"/>
<path d="M13.3333 21.3332C13.3333 20.8423 13.7313 20.4443 14.2222 20.4443H17.7778C18.2687 20.4443 18.6666 20.8423 18.6666 21.3332C18.6666 21.8241 18.2687 22.2221 17.7778 22.2221H14.2222C13.7313 22.2221 13.3333 21.8241 13.3333 21.3332Z" fill="white"/>
</svg>
