<svg width="150" height="56" viewBox="0 0 150 56" fill="none" xmlns="http://www.w3.org/2000/svg">
<path d="M32.3833 56C47.6985 56 60.1139 43.464 60.1139 28C60.1139 12.536 47.6985 0 32.3833 0C17.0681 0 4.65277 12.536 4.65277 28C4.65277 43.464 17.0681 56 32.3833 56Z" fill="#00943D"/>
<path d="M32.3834 46.4465C42.4732 46.4465 50.6527 38.1878 50.6527 28.0001C50.6527 17.8124 42.4732 9.55371 32.3834 9.55371C22.2934 9.55371 14.1139 17.8124 14.1139 28.0001C14.1139 38.1878 22.2934 46.4465 32.3834 46.4465Z" fill="#00652F"/>
<path d="M32.3833 36.5912C37.0821 36.5912 40.8911 32.7449 40.8911 28.0002C40.8911 23.2555 37.0821 19.4092 32.3833 19.4092C27.6847 19.4092 23.8755 23.2555 23.8755 28.0002C23.8755 32.7449 27.6847 36.5912 32.3833 36.5912Z" fill="#00963D"/>
<path d="M71.3627 34.8562H74.9223V29.6214H80.8705V26.7178H74.9223V23.5854H81.7461V20.687H71.3627V34.8562Z" fill="#ffffff"/>
<path d="M86.8401 24.1992H83.3368V34.856H86.8401V24.1992Z" fill="#ffffff"/>
<path d="M85.0987 20C83.8498 20 83.1345 20.6192 83.1345 21.7067C83.1345 22.3519 83.3885 23.4291 85.0987 23.4291C86.3322 23.4291 87.0422 22.7994 87.0422 21.7067C87.0422 20.614 86.3322 20 85.0987 20Z" fill="#ffffff"/>
<path d="M95.3055 23.9861C94.0546 23.9812 92.8412 24.4155 91.8755 25.2141L91.5594 24.2203H88.7148V34.8562H92.2174V27.4412C92.7736 27.0305 93.4395 26.7967 94.1294 26.77C95.0879 26.77 95.5335 27.2435 95.5335 28.2686V34.8562H99.0361V27.9928C99.0361 25.4847 97.6424 23.981 95.3055 23.981" fill="#ffffff"/>
<path d="M106.73 27.7324H100.57V30.5579H106.73V27.7324Z" fill="#ffffff"/>
<path d="M114.424 20.687H108.544V34.8562H112.108V30.4644H114.424C119.171 30.4644 120.166 27.7742 120.166 25.5158C120.166 22.2637 118.29 20.687 114.424 20.687ZM112.108 23.5906H114.284C116.192 23.5906 116.585 24.3711 116.585 25.5367C116.585 26.5357 116.311 27.5609 114.284 27.5609H112.108V23.5906Z" fill="#ffffff"/>
<path d="M126.886 32.2542C126.675 32.3176 126.453 32.3474 126.233 32.3427C125.652 32.3427 125.295 32.1658 125.295 31.276V20.2134H121.792V31.609C121.792 33.9401 122.87 35.0746 125.093 35.0746C125.807 35.1094 126.52 34.9663 127.166 34.6583L127.264 34.6011L127.099 32.1762L126.886 32.2542Z" fill="#ffffff"/>
<path d="M133.176 23.9859C131.686 23.9619 130.204 24.2179 128.809 24.7404L128.673 24.7976L129.191 27.4826L129.398 27.3734C130.356 26.9354 131.395 26.7083 132.445 26.7073C134.067 26.7073 134.399 27.2641 134.399 28.1071V28.5546C134.057 28.5546 133.415 28.4921 132.87 28.4921C129.834 28.4921 128.026 29.7826 128.026 31.9368C128.026 33.8413 129.435 35.0589 131.612 35.0589C132.799 35.0829 133.955 34.6702 134.86 33.8985L135.082 34.8456H137.896V27.8625C137.896 24.4074 135.197 24.0067 133.171 24.0067L133.176 23.9859ZM132.652 32.5612C131.871 32.5612 131.472 32.2751 131.472 31.7079C131.472 31.0523 132.015 30.7556 133.243 30.7556C133.625 30.7555 134.006 30.7851 134.383 30.844V31.9212C133.906 32.3313 133.297 32.5532 132.669 32.5456" fill="#ffffff"/>
<path d="M146.269 23.9861C145.02 23.9824 143.809 24.4167 142.845 25.2141L142.523 24.2203H139.679V34.8562H143.181V27.4412C143.737 27.0305 144.403 26.7967 145.094 26.77C146.052 26.77 146.498 27.2435 146.498 28.2686V34.8562H150V27.9928C150 25.4847 148.606 23.981 146.269 23.981" fill="#ffffff"/>
<path d="M32.0415 28.0001C32.0419 26.8671 31.7722 25.7506 31.2547 24.7439C30.7373 23.7371 29.9872 22.8696 29.0674 22.2138L12.3213 8.16436C11.3649 7.09685 10.1086 6.34578 8.71831 6.01033C7.32801 5.6749 5.86909 5.77086 4.53423 6.28554C3.19937 6.80023 2.05136 7.70945 1.24182 8.8931C0.432273 10.0767 -0.000728083 11.4792 9.19e-07 12.9151V43.1058C0.00241249 44.5405 0.437678 45.9407 1.24841 47.1219C2.05915 48.3031 3.20729 49.2099 4.54148 49.7226C5.87566 50.2353 7.33326 50.33 8.72208 49.9941C10.1109 49.6582 11.3658 48.9075 12.3213 47.841L29.0674 33.7915C29.988 33.1353 30.7384 32.2668 31.2559 31.2591C31.7734 30.2515 32.0428 29.1338 32.0415 28.0001Z" fill="url(#paint0_radial)"/>
<defs>
<radialGradient id="paint0_radial" cx="0" cy="0" r="1" gradientUnits="userSpaceOnUse" gradientTransform="translate(34.7617 20.5539) scale(26.8808 26.9957)">
<stop stop-color="#FAEE00"/>
<stop offset="1" stop-color="#FBC600"/>
</radialGradient>
</defs>
</svg>
