<svg width="40" height="40" viewBox="0 0 40 40" fill="none" xmlns="http://www.w3.org/2000/svg">
<circle cx="20" cy="20" r="20" fill="white"/>
<circle cx="20" cy="20" r="19.5" stroke="#F3C243"/>
<path d="M28.25 19.25H11.75C11.5511 19.25 11.3603 19.329 11.2197 19.4697C11.079 19.6104 11 19.8011 11 20C11 20.1989 11.079 20.3897 11.2197 20.5304C11.3603 20.671 11.5511 20.75 11.75 20.75H28.25C28.4489 20.75 28.6397 20.671 28.7803 20.5304C28.921 20.3897 29 20.1989 29 20C29 19.8011 28.921 19.6104 28.7803 19.4697C28.6397 19.329 28.4489 19.25 28.25 19.25Z" fill="#F3C243"/>
<path d="M11.75 14.75H28.25C28.4489 14.75 28.6397 14.671 28.7803 14.5304C28.921 14.3897 29 14.1989 29 14C29 13.8011 28.921 13.6104 28.7803 13.4697C28.6397 13.329 28.4489 13.25 28.25 13.25H11.75C11.5511 13.25 11.3603 13.329 11.2197 13.4697C11.079 13.6104 11 13.8011 11 14C11 14.1989 11.079 14.3897 11.2197 14.5304C11.3603 14.671 11.5511 14.75 11.75 14.75V14.75Z" fill="#F3C243"/>
<path d="M28.25 25.25H11.75C11.5511 25.25 11.3603 25.329 11.2197 25.4697C11.079 25.6104 11 25.8011 11 26C11 26.1989 11.079 26.3897 11.2197 26.5304C11.3603 26.671 11.5511 26.75 11.75 26.75H28.25C28.4489 26.75 28.6397 26.671 28.7803 26.5304C28.921 26.3897 29 26.1989 29 26C29 25.8011 28.921 25.6104 28.7803 25.4697C28.6397 25.329 28.4489 25.25 28.25 25.25Z" fill="#F3C243"/>
<rect x="19.8916" y="17.2632" width="11.2432" height="10.3158" rx="5.1579" fill="white"/>
<path d="M29.5832 21.574C29.5746 21.5343 29.5575 21.4969 29.5332 21.4643C29.5089 21.4317 29.4779 21.4046 29.4422 21.3849L28.5904 20.9139C28.5432 20.8228 28.4917 20.7338 28.4363 20.6476L28.4527 19.6763C28.4534 19.6357 28.4454 19.5954 28.4292 19.5581C28.413 19.5208 28.389 19.4874 28.3588 19.4601C27.9347 19.0759 27.4322 18.7874 26.8859 18.6144C26.8471 18.602 26.806 18.598 26.7655 18.6027C26.725 18.6073 26.686 18.6206 26.651 18.6414L25.8156 19.1408C25.7128 19.1359 25.6096 19.1359 25.507 19.1406L24.6709 18.6408C24.6359 18.6199 24.5969 18.6067 24.5563 18.602C24.5158 18.5973 24.4748 18.6013 24.4359 18.6137C23.8898 18.7875 23.3878 19.0767 22.9642 19.4615C22.934 19.4888 22.91 19.5222 22.8939 19.5595C22.8777 19.5968 22.8697 19.637 22.8703 19.6777L22.8867 20.6481C22.8312 20.7343 22.7795 20.8233 22.7323 20.9141L21.8797 21.3856C21.844 21.4053 21.813 21.4324 21.7887 21.465C21.7644 21.4976 21.7473 21.535 21.7387 21.5747C21.6167 22.1328 21.6171 22.7104 21.7398 23.2683C21.7485 23.308 21.7655 23.3454 21.7899 23.378C21.8142 23.4106 21.8452 23.4376 21.8808 23.4573L22.7327 23.9284C22.7798 24.0194 22.8314 24.1085 22.8867 24.1947L22.8703 25.1659C22.8697 25.2066 22.8777 25.2469 22.8939 25.2841C22.9101 25.3214 22.9341 25.3548 22.9643 25.3821C23.3884 25.7664 23.8908 26.0549 24.4372 26.2279C24.476 26.2403 24.517 26.2443 24.5575 26.2396C24.598 26.2349 24.637 26.2217 24.672 26.2008L25.5075 25.7014C25.6102 25.7063 25.7134 25.7064 25.816 25.7017L26.6522 26.2015C26.6871 26.2224 26.7262 26.2356 26.7667 26.2403C26.8072 26.245 26.8483 26.241 26.8871 26.2286C27.4332 26.0548 27.9352 25.7656 28.3588 25.3808C28.389 25.3535 28.413 25.3201 28.4292 25.2828C28.4454 25.2455 28.4534 25.2052 28.4527 25.1646L28.4363 24.1942C28.4919 24.108 28.5436 24.019 28.5908 23.9281L29.4434 23.4567C29.479 23.437 29.51 23.4099 29.5344 23.3773C29.5587 23.3447 29.5757 23.3072 29.5844 23.2675C29.7064 22.7095 29.706 22.1318 29.5832 21.574V21.574ZM27.238 22.4211C27.238 22.7317 27.1455 23.0354 26.9723 23.2936C26.7991 23.5519 26.5529 23.7531 26.2648 23.872C25.9767 23.9909 25.6598 24.022 25.354 23.9614C25.0482 23.9008 24.7673 23.7512 24.5468 23.5316C24.3263 23.312 24.1762 23.0321 24.1154 22.7275C24.0545 22.4229 24.0857 22.1071 24.2051 21.8202C24.3244 21.5332 24.5264 21.288 24.7857 21.1154C25.0449 20.9428 25.3497 20.8507 25.6615 20.8507C26.0795 20.8512 26.4802 21.0168 26.7757 21.3112C27.0713 21.6056 27.2375 22.0048 27.238 22.4211V22.4211Z" fill="#F3C243"/>
</svg>
