<svg width="32" height="32" viewBox="0 0 32 32" fill="none" xmlns="http://www.w3.org/2000/svg">
<path fill-rule="evenodd" clip-rule="evenodd" d="M5.95262 20.6191C7.20286 19.3689 8.89856 18.6665 10.6667 18.6665H21.3333C23.1014 18.6665 24.7971 19.3689 26.0474 20.6191C27.2976 21.8694 28 23.5651 28 25.3332V27.9998C28 28.7362 27.403 29.3332 26.6667 29.3332C25.9303 29.3332 25.3333 28.7362 25.3333 27.9998V25.3332C25.3333 24.2723 24.9119 23.2549 24.1618 22.5047C23.4116 21.7546 22.3942 21.3332 21.3333 21.3332H10.6667C9.6058 21.3332 8.58839 21.7546 7.83824 22.5047C7.08809 23.2549 6.66667 24.2723 6.66667 25.3332V27.9998C6.66667 28.7362 6.06971 29.3332 5.33333 29.3332C4.59695 29.3332 4 28.7362 4 27.9998V25.3332C4 23.5651 4.70238 21.8694 5.95262 20.6191Z" fill="white"/>
<path fill-rule="evenodd" clip-rule="evenodd" d="M16 5.33317C13.7908 5.33317 12 7.12403 12 9.33317C12 11.5423 13.7908 13.3332 16 13.3332C18.2091 13.3332 20 11.5423 20 9.33317C20 7.12403 18.2091 5.33317 16 5.33317ZM9.33331 9.33317C9.33331 5.65127 12.3181 2.6665 16 2.6665C19.6819 2.6665 22.6666 5.65127 22.6666 9.33317C22.6666 13.0151 19.6819 15.9998 16 15.9998C12.3181 15.9998 9.33331 13.0151 9.33331 9.33317Z" fill="white"/>
</svg>
