<svg width="16" height="16" viewBox="0 0 16 16" fill="none" xmlns="http://www.w3.org/2000/svg">
<g clip-path="url(#clip0_428_4)">
<path d="M7.59413 15.18C8.60183 15.1853 9.59961 14.981 10.5241 14.58C11.4281 14.1909 12.25 13.6337 12.9461 12.938C13.6412 12.2442 14.1978 11.4242 14.5861 10.522C14.985 9.59496 15.1872 8.59525 15.1801 7.58604C15.1854 6.57835 14.9811 5.58056 14.5801 4.65604C14.1895 3.75097 13.6314 2.92786 12.9351 2.23004C12.2411 1.53204 11.4187 0.974808 10.5131 0.589044C9.58716 0.193835 8.58989 -0.00698035 7.58313 -0.000956052C6.57764 -0.00722992 5.58162 0.193607 4.65713 0.589044C3.75226 0.976085 2.93006 1.53316 2.23513 2.23004C1.53864 2.92684 0.981661 3.75026 0.59413 4.65604C0.196424 5.58137 -0.00580368 6.57889 0.000130373 7.58604C-0.00591626 8.59511 0.198429 9.59436 0.60013 10.52C0.990299 11.4225 1.54778 12.2429 2.24313 12.938C2.93784 13.6336 3.75794 14.1915 4.66013 14.582C5.58596 14.9831 6.5852 15.1867 7.59413 15.18ZM7.59413 13.789C6.76516 13.7953 5.94367 13.6319 5.18013 13.309C4.44148 12.9965 3.77017 12.5443 3.20313 11.977C2.6381 11.4101 2.18876 10.7386 1.88013 10C1.55944 9.23594 1.39717 8.4147 1.40313 7.58604C1.39717 6.75739 1.55944 5.93615 1.88013 5.17204C2.18876 4.43349 2.6381 3.76202 3.20313 3.19504C3.76984 2.62844 4.4413 2.17741 5.18013 1.86704C5.9428 1.54625 6.76276 1.38396 7.59013 1.39004C8.41878 1.38408 9.24002 1.54636 10.0041 1.86704C10.7427 2.17727 11.4139 2.62833 11.9801 3.19504C12.5463 3.76235 12.9975 4.43364 13.3091 5.17204C13.632 5.93558 13.7953 6.75707 13.7891 7.58604C13.8003 8.41478 13.6392 9.23679 13.3161 10C13.0044 10.7379 12.5539 11.409 11.9891 11.977C11.423 12.5454 10.7515 12.9978 10.0121 13.309C9.24712 13.6317 8.42437 13.795 7.59413 13.789V13.789ZM6.28013 11.622H9.28813C9.36182 11.6239 9.43513 11.611 9.5038 11.5842C9.57247 11.5574 9.63513 11.5173 9.68813 11.466C9.74155 11.4162 9.78379 11.3555 9.81206 11.2881C9.84033 11.2207 9.85398 11.1481 9.85213 11.075C9.85398 11.002 9.84033 10.9294 9.81206 10.862C9.78379 10.7946 9.74155 10.7339 9.68813 10.684C9.63513 10.6328 9.57247 10.5927 9.5038 10.5659C9.43513 10.5391 9.36182 10.5262 9.28813 10.528H8.42213V6.90604C8.43171 6.72237 8.3765 6.54117 8.26613 6.39404C8.21056 6.32931 8.14072 6.27837 8.06211 6.24522C7.9835 6.21208 7.89827 6.19764 7.81313 6.20304H6.41313C6.33851 6.20099 6.26423 6.21372 6.19455 6.24049C6.12487 6.26726 6.06117 6.30755 6.00713 6.35904C5.95428 6.40766 5.91233 6.46694 5.88406 6.53296C5.85579 6.59898 5.84184 6.67024 5.84313 6.74204C5.84057 6.81653 5.85386 6.89071 5.88214 6.95967C5.91041 7.02863 5.95302 7.0908 6.00713 7.14204C6.06117 7.19353 6.12487 7.23383 6.19455 7.2606C6.26423 7.28737 6.33851 7.3001 6.41313 7.29804H7.18013V10.532H6.28013C6.20644 10.5302 6.13314 10.5431 6.06447 10.5699C5.99579 10.5967 5.93314 10.6368 5.88013 10.688C5.82671 10.7379 5.78447 10.7986 5.7562 10.866C5.72793 10.9334 5.71428 11.006 5.71613 11.079C5.71428 11.1521 5.72793 11.2247 5.7562 11.2921C5.78447 11.3595 5.82671 11.4202 5.88013 11.47C5.93346 11.5205 5.99627 11.56 6.06492 11.5861C6.13358 11.6122 6.20672 11.6244 6.28013 11.622V11.622ZM7.53013 5.01304C7.66078 5.01566 7.79054 4.99095 7.91108 4.94049C8.03163 4.89004 8.1403 4.81495 8.23013 4.72004C8.32215 4.62844 8.39481 4.51927 8.44377 4.39901C8.49273 4.27875 8.517 4.14987 8.51513 4.02004C8.51723 3.89018 8.49307 3.76124 8.44409 3.64095C8.39512 3.52066 8.32234 3.41151 8.23013 3.32004C8.13972 3.22616 8.03086 3.15201 7.91038 3.10227C7.78991 3.05253 7.66044 3.02828 7.53013 3.03104C7.39982 3.02828 7.27035 3.05253 7.14988 3.10227C7.02941 3.15201 6.92054 3.22616 6.83013 3.32004C6.73792 3.41151 6.66514 3.52066 6.61617 3.64095C6.56719 3.76124 6.54303 3.89018 6.54513 4.02004C6.54326 4.14987 6.56753 4.27875 6.61649 4.39901C6.66545 4.51927 6.73811 4.62844 6.83013 4.72004C6.91993 4.81574 7.0288 4.89154 7.14973 4.94252C7.27065 4.99351 7.40092 5.01856 7.53213 5.01604L7.53013 5.01304Z" fill="#D9D9D9"/>
</g>
<defs>
<clipPath id="clip0_428_4">
<rect width="15.18" height="15.18" fill="white"/>
</clipPath>
</defs>
</svg>
