<svg width="28" height="28" viewBox="0 0 28 28" fill="none" xmlns="http://www.w3.org/2000/svg">
<path d="M14.0075 28C15.8642 28.0112 17.703 27.6366 19.4075 26.9C21.0766 26.1808 22.5938 25.1508 23.8785 23.865C25.1613 22.5841 26.1883 21.0705 26.9045 19.405C27.6409 17.6967 28.0154 15.8543 28.0045 13.994C28.0156 12.1373 27.641 10.2985 26.9045 8.59405C26.1843 6.92465 25.1553 5.40635 23.8715 4.11905C22.5914 2.83191 21.0746 1.80439 19.4045 1.09305C17.6978 0.364794 15.8599 -0.00551144 14.0045 0.00504509C12.1488 -0.0069938 10.3106 0.363371 8.60445 1.09305C6.93134 1.80412 5.41043 2.83005 4.12445 4.11505C2.83908 5.39987 1.81098 6.91842 1.09545 8.58905C0.360972 10.2941 -0.0135139 12.1325 -0.00454783 13.989C-0.0177062 15.8495 0.356921 17.6924 1.09545 19.4C1.81741 21.0672 2.84897 22.5823 4.13545 23.865C5.41734 25.1485 6.93067 26.1776 8.59545 26.898C10.3033 27.6374 12.1465 28.0127 14.0075 28V28ZM14.0075 25.435C12.4782 25.4463 10.9629 25.1448 9.55445 24.549C8.19221 23.9725 6.95419 23.1382 5.90845 22.092C4.86283 21.0473 4.03067 19.8089 3.45845 18.446C2.86729 17.0364 2.56826 15.5216 2.57945 13.993C2.56826 12.4645 2.86729 10.9497 3.45845 9.54005C4.03067 8.17718 4.86283 6.9388 5.90845 5.89405C6.9515 4.84961 8.18735 4.01755 9.54745 3.44405C10.9544 2.85234 12.4672 2.55327 13.9935 2.56505C15.522 2.55385 17.0368 2.85288 18.4465 3.44405C19.8093 4.01627 21.0477 4.84842 22.0925 5.89405C23.1386 6.93978 23.9729 8.1778 24.5495 9.54005C25.1452 10.9485 25.4468 12.4638 25.4355 13.993C25.4562 15.5217 25.1592 17.0381 24.5635 18.446C23.9877 19.807 23.156 21.0448 22.1135 22.092C21.0694 23.1403 19.831 23.9749 18.4675 24.549C17.0564 25.1444 15.5389 25.4458 14.0075 25.435V25.435ZM9.71245 19.873L18.5315 11.073L16.8595 9.38705L8.05945 18.187L7.27745 20.003C7.24253 20.0829 7.23339 20.1717 7.25131 20.257C7.26924 20.3424 7.31333 20.42 7.37745 20.479C7.43114 20.5418 7.50372 20.5854 7.5843 20.6035C7.66489 20.6215 7.74915 20.6129 7.82445 20.579L9.71245 19.873ZM19.3535 10.261L20.3335 9.26705C20.5417 9.08114 20.6727 8.82385 20.7005 8.54605C20.7035 8.41287 20.6773 8.28064 20.6237 8.15867C20.5702 8.0367 20.4905 7.92794 20.3905 7.84005L20.0905 7.54005C20.0048 7.43941 19.8971 7.35996 19.7757 7.30791C19.6542 7.25586 19.5224 7.23264 19.3905 7.24005C19.1167 7.26871 18.863 7.3968 18.6775 7.60005L17.6835 8.58005L19.3535 10.261Z" fill="#797979"/>
</svg>
