<svg width="14" height="15" viewBox="0 0 14 15" fill="none" xmlns="http://www.w3.org/2000/svg">
<path d="M10.6 12.5H3.39998C3.2939 12.5 3.19216 12.4561 3.11715 12.378C3.04214 12.2998 3 12.1938 3 12.0833V2.91667C3 2.80616 3.04214 2.70018 3.11715 2.62204C3.19216 2.5439 3.2939 2.5 3.39998 2.5H8.20014L11 5.41667V12.0833C11 12.138 10.9897 12.1922 10.9696 12.2428C10.9495 12.2933 10.92 12.3393 10.8828 12.378C10.8457 12.4167 10.8016 12.4473 10.7531 12.4683C10.7046 12.4892 10.6525 12.5 10.6 12.5Z" stroke="white" stroke-linecap="round" stroke-linejoin="round"/>
<path d="M8 2.5V5.5H11" stroke="white" stroke-linecap="round" stroke-linejoin="round"/>
<path d="M6 8.5H8" stroke="white" stroke-linecap="round" stroke-linejoin="round"/>
<path d="M7 7.5V9.5" stroke="white" stroke-linecap="round" stroke-linejoin="round"/>
</svg>
