<svg width="72" height="72" viewBox="0 0 72 72" fill="none" xmlns="http://www.w3.org/2000/svg">
<path d="M36 71.5C55.6061 71.5 71.5 55.6061 71.5 36C71.5 16.3939 55.6061 0.5 36 0.5C16.3939 0.5 0.5 16.3939 0.5 36C0.5 55.6061 16.3939 71.5 36 71.5Z" stroke="#2A8634"/>
<path d="M35.2198 42.2591C35.4592 42.2769 35.6996 42.2412 35.9235 42.1548C36.1475 42.0683 36.3494 41.9332 36.5148 41.7591C36.8149 41.3942 36.9792 40.9366 36.9798 40.4641V39.9831C36.9856 39.4076 37.101 38.8385 37.3198 38.3061C37.5618 37.7909 37.9065 37.3305 38.3328 36.9531C38.9495 36.4037 39.607 35.9019 40.2998 35.4521C41.5501 34.6489 42.6442 33.6253 43.5288 32.4311C44.3255 31.2827 44.7357 29.9104 44.6998 28.5131C44.7421 27.0749 44.336 25.6592 43.5378 24.4621C42.7481 23.332 41.6546 22.4486 40.3838 21.9141C38.9775 21.3173 37.4623 21.0203 35.9348 21.0421C34.7703 21.0339 33.6123 21.2163 32.5068 21.5821C31.4738 21.9222 30.5158 22.4576 29.6848 23.1591C28.8712 23.8515 28.2222 24.7165 27.7848 25.6911C27.6245 26.0393 27.5022 26.4038 27.4198 26.7781C27.3461 27.1065 27.3072 27.4417 27.3038 27.7781C27.2884 28.2188 27.4431 28.6484 27.7358 28.9781C27.8945 29.1408 28.0865 29.2672 28.2986 29.3489C28.5107 29.4305 28.738 29.4654 28.9648 29.4511C29.3606 29.464 29.7488 29.3409 30.0648 29.1021C30.3737 28.8547 30.5995 28.5186 30.7118 28.1391C30.9206 27.3098 31.3087 26.5363 31.8488 25.8731C32.3176 25.3201 32.9166 24.8923 33.5918 24.6281C34.2997 24.3612 35.0513 24.229 35.8078 24.2381C36.7156 24.2245 37.6158 24.4055 38.4478 24.7691C39.1899 25.0885 39.8343 25.5984 40.3158 26.2471C40.7836 26.9082 41.0237 27.7036 40.9998 28.5131C41.0168 29.1799 40.8716 29.8409 40.5768 30.4391C40.2742 31.0062 39.8721 31.5143 39.3898 31.9391C38.8184 32.4457 38.2137 32.9135 37.5798 33.3391C36.8146 33.8576 36.0953 34.4408 35.4298 35.0821C34.8284 35.6581 34.3287 36.3316 33.9518 37.0741C33.584 37.8285 33.399 38.6589 33.4118 39.4981V40.3981C33.3897 40.8893 33.556 41.3705 33.8768 41.7431C34.0501 41.9211 34.2599 42.0593 34.4917 42.1484C34.7235 42.2375 34.9719 42.2753 35.2198 42.2591V42.2591ZM35.2368 50.9591C35.6628 50.9636 36.0818 50.8515 36.4488 50.6351C36.8094 50.4241 37.1097 50.1238 37.3208 49.7631C37.5365 49.4003 37.6486 48.9852 37.6448 48.5631C37.6493 48.1409 37.5372 47.7257 37.3208 47.3631C37.1077 47.0064 36.8077 46.7095 36.4488 46.5001C36.0801 46.288 35.6622 46.1763 35.2368 46.1763C34.8114 46.1763 34.3935 46.288 34.0248 46.5001C33.6647 46.7108 33.3624 47.0072 33.1448 47.3631C32.9235 47.724 32.8084 48.1399 32.8128 48.5631C32.8091 48.9863 32.9241 49.402 33.1448 49.7631C33.3603 50.123 33.6629 50.4229 34.0248 50.6351C34.3918 50.8512 34.8109 50.9629 35.2368 50.9581V50.9591Z" fill="#2A8634"/>
</svg>
