<svg width="28" height="28" viewBox="0 0 28 28" fill="none" xmlns="http://www.w3.org/2000/svg">
<g clip-path="url(#clip0_431_8)">
<path d="M14.0075 28C15.8642 28.0112 17.703 27.6366 19.4075 26.9C21.0766 26.1808 22.5938 25.1508 23.8785 23.865C25.1613 22.5841 26.1883 21.0705 26.9045 19.405C27.6409 17.6967 28.0154 15.8543 28.0045 13.994C28.0156 12.1373 27.641 10.2985 26.9045 8.59405C26.1843 6.92465 25.1553 5.40635 23.8715 4.11905C22.5914 2.83191 21.0746 1.80439 19.4045 1.09305C17.6978 0.364794 15.8599 -0.00551144 14.0045 0.00504509C12.1488 -0.0069938 10.3106 0.363371 8.60445 1.09305C6.93134 1.80412 5.41043 2.83005 4.12445 4.11505C2.83908 5.39987 1.81098 6.91842 1.09545 8.58905C0.360972 10.2941 -0.0135139 12.1325 -0.00454783 13.989C-0.0177062 15.8495 0.356921 17.6924 1.09545 19.4C1.81741 21.0672 2.84897 22.5823 4.13545 23.865C5.41734 25.1485 6.93067 26.1776 8.59545 26.898C10.3033 27.6374 12.1465 28.0127 14.0075 28V28ZM14.0075 25.435C12.4782 25.4463 10.9629 25.1448 9.55445 24.549C8.19221 23.9725 6.95419 23.1382 5.90845 22.092C4.86283 21.0473 4.03067 19.8089 3.45845 18.446C2.86729 17.0364 2.56826 15.5216 2.57945 13.993C2.56826 12.4645 2.86729 10.9497 3.45845 9.54005C4.03067 8.17718 4.86283 6.9388 5.90845 5.89405C6.9515 4.84961 8.18735 4.01755 9.54745 3.44405C10.9544 2.85234 12.4672 2.55327 13.9935 2.56505C15.522 2.55385 17.0368 2.85288 18.4465 3.44405C19.8093 4.01627 21.0477 4.84842 22.0925 5.89405C23.1386 6.93978 23.9729 8.1778 24.5495 9.54005C25.1452 10.9485 25.4468 12.4638 25.4355 13.993C25.4562 15.5217 25.1592 17.0381 24.5635 18.446C23.9877 19.807 23.156 21.0448 22.1135 22.092C21.0694 23.1403 19.831 23.9749 18.4675 24.549C17.0564 25.1444 15.5389 25.4458 14.0075 25.435V25.435ZM10.5485 21.929H17.4485C17.8495 21.949 18.2431 21.8149 18.5485 21.554C18.6914 21.4132 18.8042 21.2447 18.8798 21.0589C18.9555 20.873 18.9924 20.6737 18.9885 20.473L19.4495 9.88105H20.4875C20.5681 9.88301 20.6482 9.868 20.7226 9.83699C20.797 9.80598 20.8641 9.75966 20.9195 9.70105C21.0318 9.58713 21.0984 9.43586 21.1065 9.27605C21.1127 9.1944 21.1004 9.1124 21.0705 9.03619C21.0405 8.95998 20.9937 8.89155 20.9335 8.83605C20.8747 8.77782 20.8048 8.73191 20.7281 8.701C20.6513 8.67009 20.5692 8.65481 20.4865 8.65605H17.3245V7.60905C17.3363 7.35774 17.2942 7.10682 17.2011 6.87312C17.1079 6.63941 16.9659 6.42833 16.7845 6.25405C16.3803 5.90357 15.8556 5.72423 15.3215 5.75405H12.6525C12.1226 5.7226 11.602 5.90239 11.2045 6.25405C11.0268 6.43052 10.8882 6.64231 10.7976 6.87572C10.707 7.10913 10.6664 7.35896 10.6785 7.60905V8.66105H7.47845C7.39672 8.65949 7.31553 8.67466 7.23986 8.70561C7.1642 8.73656 7.09566 8.78265 7.03845 8.84105C6.98006 8.89826 6.93397 8.9668 6.90302 9.04246C6.87206 9.11812 6.8569 9.19931 6.85845 9.28105C6.85783 9.36043 6.87348 9.43909 6.90444 9.51219C6.9354 9.58528 6.98101 9.65126 7.03845 9.70605C7.09566 9.76444 7.1642 9.81053 7.23986 9.84148C7.31553 9.87244 7.39672 9.8876 7.47845 9.88605H8.54445L9.02445 20.478C9.0202 20.6774 9.05558 20.8756 9.12854 21.0612C9.2015 21.2467 9.31058 21.416 9.44945 21.559C9.75364 21.8208 10.1479 21.9535 10.5485 21.929V21.929ZM11.6725 19.839C11.3458 19.839 11.1825 19.6854 11.1825 19.378L10.8945 11.529C10.8862 11.4597 10.8941 11.3894 10.9176 11.3237C10.941 11.2579 10.9794 11.1985 11.0297 11.1501C11.08 11.1016 11.1408 11.0655 11.2074 11.0445C11.2739 11.0235 11.3445 11.0182 11.4135 11.029C11.7308 11.029 11.8941 11.1957 11.9035 11.529L12.1625 19.368C12.1709 19.4338 12.1639 19.5006 12.142 19.5632C12.1201 19.6257 12.084 19.6823 12.0364 19.7285C11.9889 19.7747 11.9313 19.8092 11.8681 19.8292C11.8049 19.8493 11.7379 19.8544 11.6725 19.844V19.839ZM13.9785 19.829C13.6451 19.829 13.4785 19.6754 13.4785 19.368V11.529C13.4696 11.4613 13.4764 11.3924 13.4984 11.3277C13.5204 11.263 13.557 11.2042 13.6053 11.1559C13.6536 11.1076 13.7124 11.071 13.7771 11.049C13.8418 11.027 13.9107 11.0202 13.9785 11.029C14.0474 11.0182 14.118 11.0235 14.1845 11.0445C14.2511 11.0655 14.3119 11.1016 14.3622 11.1501C14.4125 11.1985 14.4509 11.2579 14.4743 11.3237C14.4978 11.3894 14.5057 11.4597 14.4975 11.529V19.368C14.4975 19.6754 14.3245 19.829 13.9785 19.829ZM16.2845 19.843C16.219 19.8534 16.152 19.8483 16.0888 19.8282C16.0257 19.8082 15.968 19.7737 15.9205 19.7275C15.8729 19.6813 15.8368 19.6247 15.8149 19.5622C15.793 19.4996 15.786 19.4328 15.7945 19.367L16.0395 11.528C16.0328 11.4591 16.0418 11.3895 16.0659 11.3245C16.0899 11.2595 16.1283 11.2008 16.1782 11.1527C16.2281 11.1046 16.2882 11.0684 16.3541 11.0469C16.4199 11.0253 16.4898 11.0188 16.5585 11.028C16.626 11.0179 16.695 11.0239 16.7598 11.0456C16.8246 11.0673 16.8833 11.1041 16.9312 11.1529C16.979 11.2017 17.0146 11.2611 17.035 11.3264C17.0553 11.3916 17.06 11.4607 17.0485 11.528L16.7895 19.382C16.7795 19.69 16.6111 19.844 16.2845 19.844V19.843ZM12.1055 8.66105V7.68105C12.1014 7.60143 12.114 7.52185 12.1426 7.44744C12.1712 7.37303 12.2151 7.30544 12.2715 7.24905C12.3307 7.19485 12.4001 7.1529 12.4756 7.12561C12.5511 7.09832 12.6313 7.08623 12.7115 7.09005H15.2335C15.4018 7.08184 15.5669 7.13878 15.6945 7.24905C15.7527 7.30432 15.7984 7.37155 15.8282 7.44611C15.8581 7.52068 15.8715 7.60082 15.8675 7.68105V8.66105H12.1055Z" fill="#797979"/>
</g>
<defs>
<clipPath id="clip0_431_8">
<rect width="28" height="28" fill="white"/>
</clipPath>
</defs>
</svg>
