<svg width="24" height="24" viewBox="0 0 24 24" fill="none" xmlns="http://www.w3.org/2000/svg">
<path d="M3.28597 21.881C3.60024 22.2343 3.98218 22.5209 4.40919 22.7239C4.8362 22.927 5.29961 23.0423 5.77197 23.063C6.24052 23.0506 6.70163 22.9429 7.12716 22.7464C7.55269 22.5498 7.93371 22.2687 8.24697 21.92C8.56058 21.5978 8.84037 21.2443 9.08197 20.865C9.35864 20.4417 9.63197 19.9957 9.90197 19.527C10.172 19.0584 10.4306 18.614 10.678 18.194C10.8825 17.8364 11.1141 17.4951 11.371 17.173L13.316 19.127C13.4669 19.2985 13.6511 19.4376 13.8573 19.5357C14.0636 19.6339 14.2877 19.6891 14.516 19.698C14.7411 19.6944 14.9632 19.6445 15.1682 19.5514C15.3733 19.4584 15.557 19.3241 15.708 19.157L16.909 17.939C17.0755 17.7898 17.2098 17.6082 17.3039 17.4053C17.3979 17.2024 17.4497 16.9825 17.456 16.759C17.4477 16.5311 17.3933 16.3072 17.2961 16.101C17.1988 15.8947 17.0606 15.7103 16.89 15.559L9.59497 8.27803C9.44469 8.105 9.26084 7.9643 9.05457 7.86443C8.8483 7.76456 8.6239 7.70761 8.39497 7.69703C8.16989 7.70301 7.94843 7.75509 7.74427 7.85003C7.54011 7.94497 7.35759 8.08077 7.20797 8.24903L5.99697 9.44903C5.83322 9.60167 5.70183 9.78567 5.61061 9.9901C5.51939 10.1945 5.4702 10.4152 5.46597 10.639C5.47446 10.8667 5.52878 11.0903 5.62569 11.2965C5.72259 11.5027 5.8601 11.6872 6.02997 11.839L7.97397 13.795C7.65282 14.0457 7.31615 14.2758 6.96597 14.484C6.55264 14.7347 6.10997 14.9934 5.63797 15.26C5.16597 15.5267 4.7183 15.7984 4.29497 16.075C3.91754 16.3149 3.56717 16.5948 3.24997 16.91C2.89905 17.2234 2.61565 17.6051 2.41708 18.0316C2.2185 18.4582 2.1089 18.9207 2.09497 19.391C2.11718 19.8646 2.23401 20.3289 2.43856 20.7565C2.64312 21.1842 2.93125 21.5665 3.28597 21.881V21.881ZM7.39797 10.368L8.12997 9.65503C8.16992 9.60066 8.2221 9.55646 8.2823 9.526C8.34249 9.49553 8.40901 9.47966 8.47647 9.47966C8.54393 9.47966 8.61045 9.49553 8.67065 9.526C8.73084 9.55646 8.78302 9.60066 8.82297 9.65503L15.513 16.339C15.5648 16.381 15.6064 16.4343 15.6347 16.4947C15.663 16.5552 15.6772 16.6212 15.6762 16.688C15.6752 16.7547 15.6591 16.8203 15.6291 16.8799C15.5991 16.9395 15.556 16.9915 15.503 17.032L14.79 17.739C14.7511 17.7975 14.6986 17.8457 14.6369 17.8793C14.5753 17.913 14.5063 17.9311 14.4361 17.9321C14.3659 17.9331 14.2965 17.9169 14.2339 17.885C14.1713 17.8531 14.1174 17.8064 14.077 17.749L11.866 15.534C11.7902 15.4499 11.6965 15.3838 11.5918 15.3407C11.4871 15.2976 11.374 15.2786 11.261 15.285C11.0182 15.3114 10.793 15.4239 10.626 15.602C10.3776 15.8755 10.1627 16.1776 9.98597 16.502C9.74197 16.9187 9.47164 17.3924 9.17497 17.923C8.8783 18.4537 8.5643 18.9757 8.23297 19.489C7.92817 19.9653 7.57278 20.4072 7.17297 20.807C6.99906 21.005 6.78606 21.1649 6.54736 21.2766C6.30866 21.3883 6.04943 21.4494 5.78597 21.456C5.51759 21.4449 5.25404 21.3809 5.01038 21.2679C4.76673 21.1548 4.54775 20.9948 4.36597 20.797C4.1644 20.6172 4.00091 20.3988 3.88515 20.1547C3.76939 19.9107 3.7037 19.6459 3.69197 19.376C3.69892 19.1107 3.76008 18.8497 3.87169 18.6089C3.9833 18.3681 4.14301 18.1528 4.34097 17.976C4.74682 17.5828 5.19066 17.2307 5.66597 16.925C6.17997 16.5917 6.7023 16.2777 7.23297 15.983C7.76364 15.6884 8.2413 15.4197 8.66597 15.177C8.99056 15.0006 9.29273 14.7857 9.56597 14.537C9.73949 14.362 9.84813 14.1331 9.87397 13.888C9.88171 13.7765 9.86424 13.6646 9.82287 13.5608C9.7815 13.4569 9.71728 13.3637 9.63497 13.288L7.39797 11.071C7.34473 11.0292 7.30169 10.9758 7.27209 10.9149C7.2425 10.854 7.22712 10.7872 7.22712 10.7195C7.22712 10.6518 7.2425 10.585 7.27209 10.5241C7.30169 10.4632 7.34473 10.4099 7.39797 10.368V10.368ZM5.74697 20.539C5.89337 20.5411 6.03864 20.5131 6.17382 20.4569C6.309 20.4007 6.43123 20.3173 6.53297 20.212C6.63795 20.1108 6.72118 19.9893 6.77758 19.8548C6.83398 19.7204 6.86235 19.5758 6.86097 19.43C6.86389 19.2827 6.83625 19.1363 6.7798 19.0002C6.72335 18.864 6.63931 18.7411 6.53297 18.639C6.43052 18.535 6.30805 18.4529 6.17296 18.3975C6.03786 18.3422 5.89295 18.3148 5.74697 18.317C5.59875 18.3136 5.45138 18.3404 5.31384 18.3957C5.1763 18.4511 5.05147 18.5339 4.94697 18.639C4.84082 18.7412 4.75696 18.8642 4.70068 19.0003C4.6444 19.1364 4.61692 19.2827 4.61997 19.43C4.61791 19.5764 4.64586 19.7217 4.7021 19.8569C4.75834 19.9921 4.84168 20.1143 4.94697 20.216C5.05107 20.3218 5.1758 20.4051 5.31342 20.4606C5.45104 20.5162 5.59861 20.5429 5.74697 20.539V20.539ZM16.695 16.588L21.129 12.154C21.3678 11.9421 21.5601 11.6829 21.6936 11.3929C21.8272 11.1029 21.8992 10.7883 21.905 10.469C21.886 10.1453 21.8034 9.82855 21.6618 9.53683C21.5203 9.24512 21.3225 8.9842 21.08 8.76903L13.824 1.49403C13.5874 1.25488 13.2911 1.08329 12.966 0.997026C12.6568 0.9157 12.3314 0.919154 12.024 1.00703C11.7133 1.09592 11.4319 1.26611 11.209 1.50003C10.9641 1.76131 10.7981 2.08647 10.73 2.43803C10.554 3.20003 10.406 3.83969 10.286 4.35703C10.166 4.87436 10.052 5.31536 9.94397 5.68003C9.84699 6.01612 9.72807 6.3455 9.58797 6.66603C9.44974 6.9741 9.2914 7.27274 9.11397 7.56003C8.92864 7.86269 8.69264 8.21603 8.40597 8.62003L9.55597 9.76203C9.92249 9.2923 10.2566 8.79816 10.556 8.28303C10.7989 7.85303 11.0063 7.40386 11.176 6.94003C11.342 6.48403 11.5016 5.96469 11.655 5.38203C11.8083 4.79936 11.9956 4.09936 12.217 3.28203C12.2278 3.19258 12.2626 3.10773 12.3177 3.03644C12.3728 2.96515 12.4461 2.91007 12.53 2.87703C12.6105 2.85433 12.6959 2.85568 12.7757 2.88091C12.8555 2.90614 12.9261 2.95415 12.979 3.01903L19.866 9.88903C19.9566 9.96994 20.0299 10.0684 20.0814 10.1783C20.133 10.2883 20.1617 10.4076 20.166 10.529C20.1634 10.6462 20.1369 10.7616 20.0883 10.8681C20.0396 10.9747 19.9698 11.0703 19.883 11.149L15.581 15.465L16.695 16.588ZM15.22 11.256C15.344 11.3734 15.58 11.383 15.928 11.285C16.339 11.162 16.7354 10.9943 17.11 10.785C17.553 10.5454 17.9775 10.2729 18.38 9.97003C18.7367 9.71101 19.0598 9.4087 19.342 9.07003L17.311 7.04903C17.2391 7.81136 16.9953 8.54748 16.598 9.20203C16.2145 9.81613 15.7623 10.3845 15.25 10.896C15.1273 11.0254 15.1173 11.1454 15.22 11.256Z" fill="#07182C"/>
</svg>
