<svg width="16" height="16" viewBox="0 0 16 16" fill="none" xmlns="http://www.w3.org/2000/svg">
<g clip-path="url(#clip0_506_2)">
<path d="M-2.18454e-05 7.68499C-0.00187025 7.80884 0.0218662 7.93174 0.0697018 8.04599C0.117537 8.16025 0.188442 8.2634 0.277978 8.34899C0.363739 8.43658 0.466331 8.50592 0.579581 8.55283C0.692832 8.59975 0.814401 8.62327 0.936978 8.62199H6.74598V14.433C6.74444 14.5549 6.76787 14.6758 6.81482 14.7882C6.86177 14.9007 6.93125 15.0024 7.01898 15.087C7.105 15.1756 7.20834 15.2456 7.32258 15.2926C7.43681 15.3395 7.55949 15.3625 7.68298 15.36C7.8064 15.3631 7.9291 15.3404 8.04326 15.2934C8.15741 15.2464 8.26051 15.1761 8.34598 15.087C8.43265 15.0018 8.50117 14.8999 8.5474 14.7875C8.59363 14.6751 8.61662 14.5545 8.61498 14.433V8.62299H14.435C14.5568 8.62453 14.6777 8.6011 14.7902 8.55414C14.9027 8.50719 15.0044 8.43772 15.089 8.34999C15.1776 8.26397 15.2476 8.16062 15.2946 8.04639C15.3415 7.93216 15.3645 7.80948 15.362 7.68599C15.3645 7.5625 15.3415 7.43983 15.2946 7.32559C15.2476 7.21136 15.1776 7.10801 15.089 7.02199C15.0044 6.93426 14.9027 6.86479 14.7902 6.81784C14.6777 6.77089 14.5568 6.74746 14.435 6.74899H8.61498V0.937991C8.61533 0.816649 8.59175 0.696428 8.5456 0.584207C8.49944 0.471987 8.4316 0.369969 8.34598 0.283991C8.26244 0.192843 8.16049 0.120481 8.04688 0.0716933C7.93327 0.0229059 7.8106 -0.00119371 7.68698 0.000990772C7.56266 -0.000890974 7.43934 0.0233235 7.32496 0.07207C7.21059 0.120817 7.10771 0.193011 7.02298 0.283991C6.93623 0.369338 6.86739 0.471149 6.82051 0.583454C6.77363 0.695759 6.74965 0.816295 6.74998 0.937991V6.74899H0.936978C0.814401 6.74771 0.692832 6.77123 0.579581 6.81815C0.466331 6.86507 0.363739 6.9344 0.277978 7.02199C0.188566 7.10747 0.117734 7.21045 0.0699027 7.32453C0.0220714 7.4386 -0.00173214 7.56131 -2.18454e-05 7.68499V7.68499Z" fill="#07182C"/>
</g>
<defs>
<clipPath id="clip0_506_2">
<rect width="15.361" height="15.361" fill="white"/>
</clipPath>
</defs>
</svg>
