<svg version="1.1" id="Слой_1" xmlns="http://www.w3.org/2000/svg" x="0" y="0" viewBox="0 0 22 20.4" xml:space="preserve"><style>.st0{fill:#333}</style><path class="st0" d="M18 6.2C17.5 2.7 14.6 0 11 0S4.5 2.7 4 6.2C1.8 6.8.2 8.7 0 11c-.3 3 2 5.7 5 6v-2h-.2c-1.9-.4-3.2-2.2-2.8-4.1.4-1.9 2.2-3.2 4.1-2.8C6 7.4 6 6.6 6.1 6c.6-2.7 3.2-4.4 5.9-3.8s4.4 3.2 3.8 5.9c1.9-.3 3.7 1 4 2.9.3 1.9-1 3.7-2.9 4v2c2.3-.2 4.2-1.8 4.8-4 .9-3-.8-6-3.7-6.8z"/><path class="st0" d="M12 16.6V11h-2v5.6l-1.8-1.8-1.4 1.4 4.2 4.2 4.2-4.2-1.4-1.4z"/></svg>