<svg version="1.1" id="Слой_1" xmlns="http://www.w3.org/2000/svg" x="0" y="0" viewBox="0 0 32.4 32.4" xml:space="preserve"><path d="M16.2 8.1c-4.5 0-8.1 3.6-8.1 8.1s3.6 8.1 8.1 8.1 8.1-3.6 8.1-8.1-3.6-8.1-8.1-8.1zm4.9 8.1c0 2.7-2.2 4.9-4.9 4.9s-4.9-2.2-4.9-4.9 2.2-4.9 4.9-4.9 4.9 2.2 4.9 4.9zm3.6-10.5c-1.1 0-2 .9-2 2s.9 2 2 2 2-.9 2-2-.9-2-2-2z"/><path d="M32.3 9.5c0-1.3-.3-2.7-.8-3.9-.4-1.1-1-2.1-1.9-2.9-.8-.8-1.8-1.5-2.9-1.9-1.3-.5-2.6-.7-3.9-.8h-6.6c-4.4 0-4.9 0-6.7.1-1.3 0-2.7.3-3.9.8-1.1.4-2.1 1-2.9 1.9-.8.7-1.4 1.7-1.8 2.8C.4 6.8.1 8.2.1 9.5 0 11.2 0 11.8 0 16.2s0 5 .1 6.7c0 1.3.3 2.7.8 3.9.8 2.2 2.6 3.9 4.7 4.7 1.3.5 2.6.7 3.9.8 1.7.1 2.3.1 6.7.1s5 0 6.7-.1c1.3 0 2.7-.3 3.9-.8 2.2-.8 3.9-2.6 4.7-4.7.5-1.3.7-2.6.8-3.9.1-1.7.1-2.3.1-6.7s0-4.9-.1-6.7zm-3.2 13.2c0 1-.2 2-.5 2.9-.2.7-.6 1.3-1.1 1.8-.5.5-1.1.9-1.8 1.1-.9.3-1.9.5-2.9.5-1.9.1-2.5.1-6.5.1-4.1 0-4.7 0-6.5-.1-1 0-2-.2-2.9-.5-1.5-.5-2.5-1.5-3-2.9-.3-.9-.5-1.9-.5-2.9-.1-1.9-.1-2.5-.1-6.5 0-4.1 0-4.7.1-6.5 0-1 .2-2 .5-2.9.2-.7.6-1.3 1.1-1.8.5-.5 1.1-.9 1.8-1.1.9-.3 1.9-.5 2.9-.5 1.9-.1 2.5-.1 6.5-.1 4.1 0 4.7 0 6.5.1 1 0 2 .2 2.9.5.7.2 1.3.6 1.8 1.1.5.5.9 1.1 1.1 1.8.3.9.5 1.9.5 2.9.1 1.9.1 2.5.1 6.5.1 4.1.1 4.7 0 6.5z"/></svg>