<svg version="1.1" id="Слой_1" xmlns="http://www.w3.org/2000/svg" x="0" y="0" viewBox="0 0 20 20" xml:space="preserve"><path d="M6 18H3c-.6 0-1-.4-1-1v-3c0-.6-.4-1-1-1s-1 .4-1 1v3c0 1.7 1.3 3 3 3h3c.6 0 1-.4 1-1s-.4-1-1-1zM6 0H3C1.3 0 0 1.3 0 3v3c0 .6.4 1 1 1s1-.4 1-1V3c0-.6.4-1 1-1h3c.6 0 1-.4 1-1s-.4-1-1-1zm11 0h-3c-.6 0-1 .4-1 1s.4 1 1 1h3c.6 0 1 .4 1 1v3c0 .6.4 1 1 1s1-.4 1-1V3c0-1.7-1.3-3-3-3zm2 13c-.6 0-1 .4-1 1v3c0 .6-.4 1-1 1h-3c-.6 0-1 .4-1 1s.4 1 1 1h3c1.7 0 3-1.3 3-3v-3c0-.6-.4-1-1-1z"/></svg>