<svg version="1.1" id="Слой_1" xmlns="http://www.w3.org/2000/svg" x="0" y="0" viewBox="0 0 26 26" xml:space="preserve"><style>.st0{fill:#333}</style><path class="st0" d="M13 3.9c-2.9 0-5.2 2.3-5.2 5.3s2.3 5.2 5.2 5.3 5.2-2.3 5.2-5.3 15.9 3.9 13 3.9zm0 7.8c-1.4 0-2.6-1.2-2.6-2.6s1.2-2.6 2.6-2.6 2.6 1.2 2.6 2.6-1.2 2.6-2.6 2.6z"/><path class="st0" d="M13 0C5.8 0 0 5.8 0 13s5.8 13 13 13 13-5.8 13-13S20.2 0 13 0zM6.5 21.1l.3-.3c3.6-3.5 9.4-3.4 12.9.1-3.8 3.2-9.3 3.3-13.2.2zm15-2.1l-.2-.2c-4.7-4.4-12.1-4.2-16.5.5C2 15.6 1.9 10.7 4.5 7 7.8 2.3 14.3 1.2 19 4.5c4.7 3.3 5.8 9.8 2.5 14.5z"/></svg>