<svg version="1.1" id="Сгруппировать_10" xmlns="http://www.w3.org/2000/svg" x="0" y="0" viewBox="0 0 29.2 29.2" xml:space="preserve"><path d="M27.5 0H1.6C.7 0 0 .7 0 1.6v25.9c0 .9.7 1.6 1.6 1.6h25.9c.9 0 1.6-.7 1.6-1.6V1.6c.1-.9-.7-1.6-1.6-1.6zm-1.6 25.9H3.2V3.2h22.7v22.7z"/><path d="M8.3 16.7c.5.8 1.1 1.4 1.8 2 .7.6 1.5 1 2.4 1h2.3c.3 0 .6-.2.6-.5 0-.1 0-.2.1-.3 0-.2.1-.3.1-.5 0-.1.1-.1.2-.1s.2.2.3.3c.4.4.8.8 1.2 1.1.3.3.7.4 1.1.4h1.8c.3 0 .6 0 .9-.1.5-.1.8-.5.7-1 0-.1-.1-.2-.1-.3-.1-.3-.3-.5-.5-.8-.4-.5-.9-.9-1.3-1.3-.1-.2-.3-.3-.4-.5-.1-.1-.1-.2 0-.2.2-.3.4-.6.6-.8.5-.7.9-1.3 1.4-2 .2-.3.3-.6.4-1 0-.5-.1-.7-.5-.8-.1 0-.2-.1-.4-.1h-2.8c-.2 0-.4.1-.6.3-.1.1-.2.2-.2.4-.3.5-.5 1.1-.8 1.6-.2.4-.5.8-.8 1.2l-.1.1v-2.9c0-.5-.3-.9-.7-1-.2-.1-.4-.1-.5-.1h-1.9c-.3 0-.6.1-.8.2-.3.1-.5.3-.7.6-.1.2 0 .5.2.6h.1c.1 0 .2.1.3.1.1 0 .2.1.2.2s.1.2.1.4v1.7c0 .1 0 .2-.1.2l-.1-.1c-.3-.4-.6-.8-.9-1.3-.3-.5-.5-1.1-.8-1.6-.2-.4-.6-.7-1.1-.7-.8 0-1.6 0-2.4.1-.3 0-.5.3-.6.6 0 .2 0 .4.1.6.5 1.5 1.3 2.9 2.2 4.3z"/></svg>