<svg version="1.1" id="Слой_1" xmlns="http://www.w3.org/2000/svg" x="0" y="0" viewBox="0 0 23 16" xml:space="preserve"><path d="M10.4.1c-.3-.2-.7-.1-1 .1L4.6 4H1c-.6 0-1 .4-1 1v6c0 .6.4 1 1 1h3.6l4.7 3.8c.3.1.5.2.7.2.1 0 .3 0 .4-.1.3-.2.6-.5.6-.9V1c0-.4-.2-.7-.6-.9zM9 12.9l-3.4-2.7c-.2-.1-.4-.2-.6-.2H2V6h3c.2 0 .4-.1.6-.2L9 3.1v9.8zM20.4 8l2.3-2.3c.4-.4.4-1 0-1.4s-1-.4-1.4 0L19 6.6l-2.3-2.3c-.4-.4-1-.4-1.4 0s-.4 1 0 1.4L17.6 8l-2.3 2.3c-.4.4-.4 1 0 1.4.2.2.5.3.7.3s.5-.1.7-.3L19 9.4l2.3 2.3c.2.2.5.3.7.3s.5-.1.7-.3c.4-.4.4-1 0-1.4L20.4 8z"/></svg>