<svg version="1.1" id="Слой_1" xmlns="http://www.w3.org/2000/svg" x="0" y="0" viewBox="0 0 22 16.1" xml:space="preserve"><path d="M10.4.2c-.3-.2-.7-.2-1 .1L4.6 4.1H1c-.6 0-1 .4-1 1v6c0 .6.4 1 1 1h3.6l4.7 3.8c.2.1.4.2.6.2.1 0 .3 0 .4-.1.3-.2.6-.5.6-.9v-14c.1-.4-.1-.8-.5-.9zM9 13l-3.4-2.7c-.2-.1-.4-.2-.6-.2H2v-4h3c.2 0 .4-.1.6-.2L9 3.2V13zm4.8-9.2c-.4.4-.4 1 0 1.4 1.6 1.6 1.6 4.1 0 5.7-.4.4-.4 1 0 1.4.2.2.5.3.7.3s.5-.1.7-.3c2.3-2.3 2.3-6.1 0-8.5-.3-.4-1-.4-1.4 0z"/><path d="M18.8.3c-.4-.4-1-.4-1.4 0-.4.4-.4 1 0 1.4 3.5 3.5 3.5 9.2 0 12.7-.4.4-.4 1 0 1.4.2.2.5.3.7.3s.5-.1.7-.3c4.3-4.2 4.3-11.2 0-15.5z"/></svg>