<svg version="1.1" id="Слой_1" xmlns="http://www.w3.org/2000/svg" x="0" y="0" viewBox="0 0 32.4 25.9" xml:space="preserve"><path d="M31.7 4c-.4-1.6-1.6-2.8-3.1-3.3C25.8 0 16.2 0 16.2 0S6.7 0 3.9.8C2.3 1.2 1.1 2.5.7 4 0 6.9 0 13 0 13s0 6 .7 8.9c.4 1.6 1.6 2.8 3.1 3.3 2.8.8 12.3.8 12.3.8s9.6 0 12.3-.8c1.6-.5 2.8-1.7 3.1-3.3.7-2.9.7-8.9.7-8.9s.2-6.1-.5-9zm-3.2 17.1c-.1.4-.4.8-.9 1-.7.2-4.2.7-11.5.7s-10.7-.5-11.5-.7c-.4-.1-.8-.5-.9-1-.5-2.7-.7-5.4-.6-8.1-.1-2.7.2-5.4.6-8.1.3-.5.6-.9 1-1 .7-.2 4.2-.7 11.5-.7s10.7.5 11.4.7c.4.1.8.5.9 1 .5 2.7.7 5.4.6 8.1.1 2.7-.1 5.4-.6 8.1z"/><path d="M13 18.6l9.7-5.6L13 7.3z"/></svg>