<svg width="40" height="40" viewBox="0 0 40 40" fill="none" xmlns="http://www.w3.org/2000/svg">
<path d="M20.1308 40C31.0702 40 39.9383 31.0457 39.9383 20C39.9383 8.95428 31.0702 0 20.1308 0C9.19135 0 0.323242 8.95428 0.323242 20C0.323242 31.0457 9.19135 40 20.1308 40Z" fill="#00943D"/>
<path d="M20.1312 33.1762C27.3382 33.1762 33.1807 27.2771 33.1807 20.0002C33.1807 12.7233 27.3382 6.82422 20.1312 6.82422C12.924 6.82422 7.08154 12.7233 7.08154 20.0002C7.08154 27.2771 12.924 33.1762 20.1312 33.1762Z" fill="#00652F"/>
<path d="M20.1307 26.1366C23.487 26.1366 26.2077 23.3893 26.2077 20.0002C26.2077 16.6112 23.487 13.8638 20.1307 13.8638C16.7745 13.8638 14.0537 16.6112 14.0537 20.0002C14.0537 23.3893 16.7745 26.1366 20.1307 26.1366Z" fill="#00963D"/>
</svg>
