<svg width="58" height="12" viewBox="0 0 58 12" fill="none" xmlns="http://www.w3.org/2000/svg">
<path d="M0.973633 10.8972H3.51622V7.15806H7.76494V5.0841H3.51622V2.84661H8.39035V0.776367H0.973633V10.8972Z" fill="#353534"/>
<path d="M12.0287 3.28516H9.52637V10.8971H12.0287V3.28516Z" fill="#353534"/>
<path d="M10.7853 0.285645C9.89322 0.285645 9.38232 0.727906 9.38232 1.50475C9.38232 1.9656 9.56375 2.73501 10.7853 2.73501C11.6664 2.73501 12.1736 2.28524 12.1736 1.50475C12.1736 0.724188 11.6664 0.285645 10.7853 0.285645Z" fill="#353534"/>
<path d="M18.0753 3.13255C17.1818 3.12906 16.3151 3.43932 15.6253 4.00971L15.3995 3.29988H13.3677V10.897H15.8695V5.60051C16.2668 5.30714 16.7425 5.14012 17.2352 5.12106C17.9198 5.12106 18.2382 5.45928 18.2382 6.19151V10.897H20.74V5.99451C20.74 4.20299 19.7445 3.12891 18.0753 3.12891" fill="#353534"/>
<path d="M26.2364 5.80859H21.8359V7.82678H26.2364V5.80859Z" fill="#353534"/>
<path d="M31.7323 0.776367H27.5322V10.8972H30.078V7.76022H31.7323C35.123 7.76022 35.8333 5.83864 35.8333 4.22553C35.8333 1.90259 34.4934 0.776367 31.7323 0.776367ZM30.078 2.85033H31.6324C32.9947 2.85033 33.2759 3.40786 33.2759 4.2404C33.2759 4.95403 33.0799 5.68626 31.6324 5.68626H30.078V2.85033Z" fill="#353534"/>
<path d="M40.6327 9.03859C40.4817 9.08383 40.3237 9.10513 40.1665 9.1018C39.7513 9.1018 39.4965 8.97545 39.4965 8.33983V0.437988H36.9941V8.57773C36.9941 10.2428 37.764 11.0531 39.3517 11.0531C39.8621 11.078 40.3709 10.9758 40.8325 10.7558L40.903 10.7149L40.7845 8.98289L40.6327 9.03859Z" fill="#353534"/>
<path d="M45.1261 3.13294C44.062 3.11582 43.0032 3.29864 42.0065 3.67188L41.9096 3.7127L42.2799 5.63057L42.4278 5.55256C43.1117 5.23974 43.8536 5.07753 44.6041 5.07675C45.7628 5.07675 45.9997 5.47447 45.9997 6.07662V6.39626C45.755 6.39626 45.2965 6.35163 44.9077 6.35163C42.7391 6.35163 41.4473 7.27342 41.4473 8.81216C41.4473 10.1725 42.4541 11.0422 44.0085 11.0422C44.8566 11.0593 45.6822 10.7646 46.3289 10.2134L46.4877 10.8898H48.4975V5.90194C48.4975 3.43397 46.5698 3.14781 45.1222 3.14781L45.1261 3.13294ZM44.752 9.25814C44.1936 9.25814 43.9086 9.05378 43.9086 8.64862C43.9086 8.18033 44.2966 7.96846 45.1741 7.96846C45.4468 7.96838 45.7186 7.98953 45.9881 8.03159V8.801C45.6473 9.09391 45.2121 9.2524 44.7637 9.24698" fill="#353534"/>
<path d="M54.4784 3.13255C53.5861 3.12991 52.721 3.44017 52.0325 4.00971L51.8025 3.29988H49.771V10.897H52.2726V5.60051C52.6699 5.30714 53.1455 5.14012 53.6388 5.12106C54.3235 5.12106 54.6418 5.45928 54.6418 6.19151V10.897H57.1434V5.99451C57.1434 4.20299 56.1474 3.12891 54.4784 3.12891" fill="#353534"/>
</svg>
