<svg width="23" height="32" viewBox="0 0 23 32" fill="none" xmlns="http://www.w3.org/2000/svg">
<path d="M22.8868 16C22.8871 15.1908 22.6944 14.3933 22.3248 13.6742C21.9552 12.9551 21.4194 12.3354 20.7624 11.867L8.80089 1.83169C8.11779 1.06918 7.22044 0.532703 6.22736 0.293096C5.23429 0.0534967 4.19221 0.12204 3.23874 0.48967C2.28526 0.857307 1.46526 1.50675 0.887013 2.35221C0.308766 3.19768 -0.000520059 4.19942 6.56428e-07 5.22509V26.7899C0.0017232 27.8146 0.312627 28.8148 0.891722 29.6585C1.47082 30.5022 2.29092 31.1499 3.24392 31.5162C4.1969 31.8824 5.23804 31.95 6.23006 31.7101C7.22208 31.4701 8.11841 30.9339 8.80089 30.1721L20.7624 20.1368C21.42 19.6681 21.956 19.0477 22.3257 18.3279C22.6953 17.6082 22.8877 16.8099 22.8868 16Z" fill="url(#paint0_radial_121_317)"/>
<defs>
<radialGradient id="paint0_radial_121_317" cx="0" cy="0" r="1" gradientUnits="userSpaceOnUse" gradientTransform="translate(24.8298 10.6814) scale(19.2006 19.2827)">
<stop stop-color="#FAEE00"/>
<stop offset="1" stop-color="#FBC600"/>
</radialGradient>
</defs>
</svg>
