<svg width="56" height="9" viewBox="0 0 56 9" fill="none" xmlns="http://www.w3.org/2000/svg">
<path d="M0.737969 1H3.09797V6.17H6.25797V8H0.737969V1ZM12.7298 6.22V8H6.90984V1H12.5998V2.78H9.22984V3.6H12.1898V5.3H9.22984V6.22H12.7298ZM18.4084 6.78H15.7484L15.2784 8H12.8784L15.9384 1H18.2584L21.3184 8H18.8784L18.4084 6.78ZM17.7584 5.08L17.0784 3.32L16.3984 5.08H17.7584ZM24.695 6.24H24.055V8H21.695V1H25.065C25.7117 1 26.275 1.10667 26.755 1.32C27.235 1.53333 27.605 1.84 27.865 2.24C28.125 2.64 28.255 3.10667 28.255 3.64C28.255 4.14 28.1417 4.57667 27.915 4.95C27.6883 5.32333 27.3617 5.62 26.935 5.84L28.405 8H25.885L24.695 6.24ZM25.875 3.64C25.875 3.38 25.795 3.18 25.635 3.04C25.475 2.89333 25.235 2.82 24.915 2.82H24.055V4.46H24.915C25.235 4.46 25.475 4.39 25.635 4.25C25.795 4.10333 25.875 3.9 25.875 3.64ZM36.0462 1V8H34.1062L31.4462 4.82V8H29.1462V1H31.0862L33.7462 4.18V1H36.0462ZM37.1833 1H39.5433V8H37.1833V1ZM47.5794 1V8H45.6394L42.9794 4.82V8H40.6794V1H42.6194L45.2794 4.18V1H47.5794ZM53.3465 4.31H55.3965V7.27C54.9832 7.55667 54.5032 7.77667 53.9565 7.93C53.4098 8.08333 52.8732 8.16 52.3465 8.16C51.5998 8.16 50.9298 8.00667 50.3365 7.7C49.7432 7.38667 49.2765 6.95333 48.9365 6.4C48.6032 5.84 48.4365 5.20667 48.4365 4.5C48.4365 3.79333 48.6032 3.16333 48.9365 2.61C49.2765 2.05 49.7465 1.61667 50.3465 1.31C50.9532 0.996666 51.6365 0.84 52.3965 0.84C53.0832 0.84 53.6965 0.956666 54.2365 1.19C54.7832 1.41667 55.2365 1.75 55.5965 2.19L54.0865 3.52C53.6465 3.00667 53.1232 2.75 52.5165 2.75C51.9965 2.75 51.5832 2.90667 51.2765 3.22C50.9698 3.53333 50.8165 3.96 50.8165 4.5C50.8165 5.02667 50.9665 5.45 51.2665 5.77C51.5732 6.09 51.9798 6.25 52.4865 6.25C52.7865 6.25 53.0732 6.19333 53.3465 6.08V4.31Z" fill="#FBCD01"/>
</svg>
