<svg width="29" height="29" viewBox="0 0 29 29" fill="none" xmlns="http://www.w3.org/2000/svg">
<path d="M12.6218 10.2049V12.0983H11.2358V14.4124H12.6218V21.2915H15.4708V14.4124H17.3821C17.3821 14.4124 17.5622 13.3028 17.6488 12.0886H15.4818V10.5074C15.4818 10.2695 15.7926 9.95188 16.1006 9.95188H17.6516V7.5415H15.541C12.5517 7.5415 12.6218 9.85838 12.6218 10.2049Z" fill="black"/>
<path d="M6.1665 3.4165C5.43716 3.4165 4.73769 3.70624 4.22196 4.22196C3.70624 4.73769 3.4165 5.43716 3.4165 6.1665V22.6665C3.4165 23.3958 3.70624 24.0953 4.22196 24.611C4.73769 25.1268 5.43716 25.4165 6.1665 25.4165H22.6665C23.3958 25.4165 24.0953 25.1268 24.611 24.611C25.1268 24.0953 25.4165 23.3958 25.4165 22.6665V6.1665C25.4165 5.43716 25.1268 4.73769 24.611 4.22196C24.0953 3.70624 23.3958 3.4165 22.6665 3.4165H6.1665ZM6.1665 0.666504H22.6665C24.1252 0.666504 25.5241 1.24597 26.5556 2.27742C27.587 3.30887 28.1665 4.70781 28.1665 6.1665V22.6665C28.1665 24.1252 27.587 25.5241 26.5556 26.5556C25.5241 27.587 24.1252 28.1665 22.6665 28.1665H6.1665C4.70781 28.1665 3.30887 27.587 2.27742 26.5556C1.24597 25.5241 0.666504 24.1252 0.666504 22.6665V6.1665C0.666504 4.70781 1.24597 3.30887 2.27742 2.27742C3.30887 1.24597 4.70781 0.666504 6.1665 0.666504V0.666504Z" fill="black"/>
</svg>
