<svg width="28" height="28" viewBox="0 0 28 28" fill="none" xmlns="http://www.w3.org/2000/svg">
<path fill-rule="evenodd" clip-rule="evenodd" d="M8.41475 0.415996C9.881 0.348496 10.3485 0.333496 14.0835 0.333496C17.8185 0.333496 18.286 0.349746 19.751 0.415996C21.216 0.482246 22.216 0.715996 23.091 1.05475C24.0072 1.401 24.8385 1.94225 25.526 2.64225C26.226 3.3285 26.766 4.1585 27.111 5.076C27.451 5.951 27.6835 6.951 27.751 8.4135C27.8185 9.88225 27.8335 10.3497 27.8335 14.0835C27.8335 17.8185 27.8172 18.286 27.751 19.7522C27.6847 21.2147 27.451 22.2147 27.111 23.0897C26.766 24.0074 26.2251 24.8387 25.526 25.526C24.8385 26.226 24.0072 26.766 23.091 27.111C22.216 27.451 21.216 27.6835 19.7535 27.751C18.286 27.8185 17.8185 27.8335 14.0835 27.8335C10.3485 27.8335 9.881 27.8172 8.41475 27.751C6.95225 27.6847 5.95225 27.451 5.07725 27.111C4.15965 26.766 3.32827 26.2251 2.641 25.526C1.94147 24.8393 1.40014 24.0084 1.05475 23.091C0.715996 22.216 0.483496 21.216 0.415996 19.7535C0.348496 18.2847 0.333496 17.8172 0.333496 14.0835C0.333496 10.3485 0.349746 9.881 0.415996 8.416C0.482246 6.951 0.715996 5.951 1.05475 5.076C1.40065 4.1586 1.94239 3.32764 2.64225 2.641C3.32855 1.94162 4.15909 1.4003 5.076 1.05475C5.951 0.715996 6.951 0.483496 8.4135 0.415996H8.41475ZM19.6397 2.891C18.1897 2.82475 17.7547 2.811 14.0835 2.811C10.4122 2.811 9.97725 2.82475 8.52725 2.891C7.186 2.95225 6.4585 3.176 5.9735 3.36475C5.33225 3.61475 4.8735 3.911 4.39225 4.39225C3.93605 4.83606 3.58497 5.37635 3.36475 5.9735C3.176 6.4585 2.95225 7.186 2.891 8.52725C2.82475 9.97725 2.811 10.4122 2.811 14.0835C2.811 17.7547 2.82475 18.1897 2.891 19.6397C2.95225 20.981 3.176 21.7085 3.36475 22.1935C3.58475 22.7897 3.936 23.331 4.39225 23.7747C4.836 24.231 5.37725 24.5822 5.9735 24.8022C6.4585 24.991 7.186 25.2147 8.52725 25.276C9.97725 25.3422 10.411 25.356 14.0835 25.356C17.756 25.356 18.1897 25.3422 19.6397 25.276C20.981 25.2147 21.7085 24.991 22.1935 24.8022C22.8347 24.5522 23.2935 24.256 23.7747 23.7747C24.231 23.331 24.5822 22.7897 24.8022 22.1935C24.991 21.7085 25.2147 20.981 25.276 19.6397C25.3422 18.1897 25.356 17.7547 25.356 14.0835C25.356 10.4122 25.3422 9.97725 25.276 8.52725C25.2147 7.186 24.991 6.4585 24.8022 5.9735C24.5522 5.33225 24.256 4.8735 23.7747 4.39225C23.3309 3.93609 22.7906 3.58501 22.1935 3.36475C21.7085 3.176 20.981 2.95225 19.6397 2.891V2.891ZM12.3272 18.3222C13.3081 18.7305 14.4002 18.7856 15.4172 18.4781C16.4341 18.1707 17.3127 17.5196 17.903 16.6363C18.4933 15.753 18.7586 14.6921 18.6536 13.6349C18.5485 12.5777 18.0798 11.5897 17.3272 10.8397C16.8475 10.3603 16.2675 9.99326 15.6289 9.76493C14.9903 9.5366 14.309 9.4527 13.6341 9.51927C12.9592 9.58583 12.3074 9.80122 11.7258 10.1499C11.1441 10.4986 10.6469 10.9719 10.2701 11.5358C9.89332 12.0997 9.64623 12.7401 9.54664 13.4109C9.44705 14.0818 9.49744 14.7664 9.69417 15.4154C9.89091 16.0644 10.2291 16.6618 10.6844 17.1644C11.1397 17.667 11.7008 18.0625 12.3272 18.3222ZM9.086 9.086C9.74228 8.42971 10.5214 7.90912 11.3789 7.55395C12.2363 7.19877 13.1554 7.01596 14.0835 7.01596C15.0116 7.01596 15.9307 7.19877 16.7881 7.55395C17.6456 7.90912 18.4247 8.42971 19.081 9.086C19.7373 9.74228 20.2579 10.5214 20.613 11.3789C20.9682 12.2363 21.151 13.1554 21.151 14.0835C21.151 15.0116 20.9682 15.9307 20.613 16.7881C20.2579 17.6456 19.7373 18.4247 19.081 19.081C17.7556 20.4064 15.9579 21.151 14.0835 21.151C12.2091 21.151 10.4114 20.4064 9.086 19.081C7.76058 17.7556 7.01596 15.9579 7.01596 14.0835C7.01596 12.2091 7.76058 10.4114 9.086 9.086V9.086ZM22.7185 8.0685C22.8811 7.91508 23.0113 7.7306 23.1014 7.52596C23.1914 7.32133 23.2395 7.10071 23.2428 6.87716C23.246 6.65361 23.2044 6.43168 23.1203 6.22451C23.0363 6.01734 22.9115 5.82913 22.7534 5.67104C22.5954 5.51296 22.4072 5.38819 22.2 5.30414C21.9928 5.22009 21.7709 5.17847 21.5473 5.18172C21.3238 5.18498 21.1032 5.23306 20.8985 5.32312C20.6939 5.41317 20.5094 5.54337 20.356 5.706C20.0576 6.02228 19.8943 6.4424 19.9006 6.87716C19.907 7.31192 20.0825 7.72709 20.3899 8.03455C20.6974 8.342 21.1126 8.51753 21.5473 8.52387C21.9821 8.53021 22.4022 8.36686 22.7185 8.0685V8.0685Z" fill="#FEC006"/>
</svg>
