<svg width="28" height="21" viewBox="0 0 28 21" fill="none" xmlns="http://www.w3.org/2000/svg">
<path d="M27.5 10.7326C27.5 10.665 27.5 10.5883 27.4969 10.4993C27.4939 10.2507 27.4877 9.9714 27.4816 9.67369C27.457 8.81738 27.4141 7.96415 27.3465 7.16002C27.2545 6.05204 27.1194 5.12821 26.9353 4.43457C26.7409 3.7107 26.36 3.05051 25.8306 2.52C25.3011 1.98948 24.6417 1.60721 23.9182 1.41141C23.0497 1.17815 21.3493 1.0339 18.9554 0.944894C17.8167 0.901925 16.5982 0.874302 15.3797 0.858956C14.9531 0.852818 14.5572 0.849749 14.2012 0.84668H13.2988C12.9428 0.849749 12.5469 0.852818 12.1203 0.858956C10.9018 0.874302 9.68331 0.901925 8.54464 0.944894C6.15067 1.03697 4.44727 1.18122 3.58175 1.41141C2.85804 1.60673 2.19837 1.98884 1.66886 2.51943C1.13934 3.05002 0.758583 3.71046 0.564732 4.43457C0.377511 5.12821 0.245536 6.05204 0.15346 7.16002C0.0859375 7.96415 0.0429687 8.81738 0.0184151 9.67369C0.00920754 9.9714 0.00613835 10.2507 0.00306915 10.4993C0.00306915 10.5883 0 10.665 0 10.7326V10.9044C0 10.972 -4.6878e-08 11.0487 0.00306915 11.1377C0.00613835 11.3863 0.0122767 11.6656 0.0184151 11.9633C0.0429687 12.8196 0.0859375 13.6729 0.15346 14.477C0.245536 15.585 0.38058 16.5088 0.564732 17.2024C0.957589 18.6726 2.11161 19.8327 3.58175 20.2256C4.44727 20.4588 6.15067 20.6031 8.54464 20.6921C9.68331 20.7351 10.9018 20.7627 12.1203 20.778C12.5469 20.7842 12.9428 20.7873 13.2988 20.7903H14.2012C14.5572 20.7873 14.9531 20.7842 15.3797 20.778C16.5982 20.7627 17.8167 20.7351 18.9554 20.6921C21.3493 20.6 23.0527 20.4558 23.9182 20.2256C25.3884 19.8327 26.5424 18.6756 26.9353 17.2024C27.1225 16.5088 27.2545 15.585 27.3465 14.477C27.4141 13.6729 27.457 12.8196 27.4816 11.9633C27.4908 11.6656 27.4939 11.3863 27.4969 11.1377C27.4969 11.0487 27.5 10.972 27.5 10.9044V10.7326V10.7326ZM25.2902 10.8922C25.2902 10.9566 25.2902 11.0272 25.2871 11.1101C25.284 11.3495 25.2779 11.6134 25.2718 11.8989C25.2503 12.7153 25.2073 13.5317 25.1429 14.2898C25.06 15.278 24.9434 16.0883 24.7991 16.6316C24.6088 17.3405 24.0502 17.9022 23.3443 18.0894C22.6998 18.2613 21.0762 18.3994 18.8694 18.4823C17.7522 18.5253 16.5491 18.5529 15.3491 18.5682C14.9286 18.5744 14.5388 18.5774 14.1889 18.5774H13.3111L12.1509 18.5682C10.9509 18.5529 9.75084 18.5253 8.63058 18.4823C6.42383 18.3963 4.79715 18.2613 4.15569 18.0894C3.44978 17.8991 2.89118 17.3405 2.70089 16.6316C2.55664 16.0883 2.44001 15.278 2.35714 14.2898C2.29269 13.5317 2.25279 12.7153 2.22824 11.8989C2.21903 11.6134 2.21596 11.3464 2.21289 11.1101C2.21289 11.0272 2.20982 10.9535 2.20982 10.8922V10.7448C2.20982 10.6804 2.20982 10.6098 2.21289 10.5269C2.21596 10.2875 2.2221 10.0236 2.22824 9.73814C2.24972 8.92174 2.29269 8.10533 2.35714 7.34724C2.44001 6.35896 2.55664 5.54869 2.70089 5.00544C2.89118 4.29646 3.44978 3.73479 4.15569 3.54757C4.80022 3.3757 6.42383 3.23758 8.63058 3.15472C9.74777 3.11175 10.9509 3.08412 12.1509 3.06878C12.5714 3.06264 12.9612 3.05957 13.3111 3.05957H14.1889L15.3491 3.06878C16.5491 3.08412 17.7492 3.11175 18.8694 3.15472C21.0762 3.24065 22.7028 3.3757 23.3443 3.54757C24.0502 3.73786 24.6088 4.29646 24.7991 5.00544C24.9434 5.54869 25.06 6.35896 25.1429 7.34724C25.2073 8.10533 25.2472 8.92174 25.2718 9.73814C25.281 10.0236 25.284 10.2906 25.2871 10.5269C25.2871 10.6098 25.2902 10.6835 25.2902 10.7448V10.8922ZM11.0184 14.9312L18.139 10.7878L11.0184 6.70578V14.9312Z" fill="black"/>
</svg>
